<svg xmlns="http://www.w3.org/2000/svg" width="320.089" height="55.605" viewBox="0 0 320.089 55.605">
  <g id="Group_13382" data-name="Group 13382" transform="translate(-28 -618.768)">
    <rect id="Rectangle_1804" data-name="Rectangle 1804" width="320" height="55" rx="8" transform="translate(28 619)" fill="#553c37"/>
    <path id="Path_34349" data-name="Path 34349" d="M447.384,1373.1a30.874,30.874,0,0,1,4.048,11.8c.492,5.708,4.025,9.642,9.578,9.031a69.49,69.49,0,0,0,20.422-5.113c10.841-4.816,17.082-3.871,22.465,6.886,3.32,6.635,4.488,14.318,7.138,21.336,1.1,2.9,3,6.6,5.492,7.628,4.237,1.755,6.231-2.212,7.977-5.656,7.7-15.2,19.736-15.909,29.388-1.857a67.015,67.015,0,0,0,6.02,7.71,36.849,36.849,0,0,0,3.609,3.179s3.341,1.5,9.036-1.147c1.566-.729,3.18-2.226,3.8-6.229a9.71,9.71,0,0,0,0-1.641v-37.885a6.325,6.325,0,0,0,0-2c-2.534-8.1-10.544-6.048-10.544-6.048Z" transform="translate(-228.354 -754.103)" fill="#85615c"/>
  </g>
</svg>
