<svg xmlns="http://www.w3.org/2000/svg" width="484.137" height="420.579" viewBox="0 0 484.137 420.579">
  <path id="noun-purchase-4924472" d="M576.54,158.32A52.37,52.37,0,0,0,536.708,140H219.538l-7.246-41.074A35,35,0,0,0,177.815,70H122.5a17.5,17.5,0,1,0,0,35h55.316l44.855,254.14a52.235,52.235,0,0,0,18.512,31.5A60.635,60.635,0,0,0,227.5,428.75,61.252,61.252,0,1,0,343.857,402.5h99.75a60.589,60.589,0,0,0-6.109,26.25A61.25,61.25,0,1,0,546,390.355a52.286,52.286,0,0,0,18.27-32.375L588.5,200.48a52.316,52.316,0,0,0-11.969-42.156ZM315,428.75a26.247,26.247,0,1,1-7.687-18.562A26.253,26.253,0,0,1,315,428.75ZM498.75,455a26.247,26.247,0,1,1,18.562-7.687A26.253,26.253,0,0,1,498.75,455Zm31.012-102.34a17.5,17.5,0,0,1-17.293,14.84H274.359A17.5,17.5,0,0,1,257.1,353.047L225.746,175h310.96a17.5,17.5,0,0,1,17.289,20.161Z" transform="translate(-104.999 -69.996)"/>
</svg>
