<svg xmlns="http://www.w3.org/2000/svg" width="470.398" height="403.2" viewBox="0 0 470.398 403.2">
  <path id="Path_4" data-name="Path 4" d="M159.6,78.4a44.953,44.953,0,0,0-44.8,44.8V442.4A39.361,39.361,0,0,0,154,481.6H546a39.361,39.361,0,0,0,39.2-39.2V184.8A39.361,39.361,0,0,0,546,145.6H518v-56a11.638,11.638,0,0,0-11.2-11.2Zm0,22.4h336v44.8h-336a22.4,22.4,0,0,1,0-44.8Zm-22.4,61.074A44.443,44.443,0,0,0,159.6,168c126.14-.113,277.99,0,386.4,0a16.526,16.526,0,0,1,16.8,16.8v56H400.4a28.192,28.192,0,0,0-28,28v89.6a28.192,28.192,0,0,0,28,28H562.8v56A16.526,16.526,0,0,1,546,459.2H154a16.526,16.526,0,0,1-16.8-16.8Zm263.2,101.32H562.8v100.8H400.4a5.361,5.361,0,0,1-5.6-5.6v-89.6a5.361,5.361,0,0,1,5.6-5.6Zm56,22.227a28,28,0,1,0,28,28A28.171,28.171,0,0,0,456.4,285.421Zm0,22.4a5.6,5.6,0,1,1-5.6,5.6A5.44,5.44,0,0,1,456.4,307.819Z" transform="translate(-114.799 -78.402)"/>
</svg>
