<?xml version="1.0" encoding="UTF-8"?>
<svg width="700pt" height="700pt" version="1.1" viewBox="0 0 700 700" xmlns="http://www.w3.org/2000/svg">
 <g>
  <path d="m350 17.5c-69.621 0-136.39 27.656-185.62 76.883-49.227 49.23-76.883 116-76.883 185.62s27.656 136.39 76.883 185.62c49.23 49.227 116 76.883 185.62 76.883s136.39-27.656 185.62-76.883c49.227-49.23 76.883-116 76.883-185.62 0-46.078-12.129-91.344-35.168-131.25-23.039-39.906-56.176-73.043-96.082-96.082-39.906-23.039-85.172-35.168-131.25-35.168zm0 490c-60.336 0-118.2-23.969-160.87-66.633-42.664-42.664-66.633-100.53-66.633-160.87s23.969-118.2 66.633-160.87c42.664-42.664 100.53-66.633 160.87-66.633s118.2 23.969 160.87 66.633c42.664 42.664 66.633 100.53 66.633 160.87s-23.969 118.2-66.633 160.87c-42.664 42.664-100.53 66.633-160.87 66.633z"/>
  <path d="m367.5 271.95v-166.95c0-6.2539-3.3359-12.031-8.75-15.156s-12.086-3.125-17.5 0-8.75 8.9023-8.75 15.156v175c0 5.1172 2.2383 9.9766 6.125 13.301l122.5 105c4.75 4.0625 11.309 5.2852 17.207 3.1992 5.8945-2.082 10.23-7.1523 11.375-13.301 1.1406-6.1445-1.082-12.434-5.832-16.5z"/>
 </g>
</svg>
