<svg xmlns="http://www.w3.org/2000/svg" width="487.604" height="330.809" viewBox="0 0 487.604 330.809">
  <path id="Path_1" data-name="Path 1" d="M142.8,117.6a33.653,33.653,0,0,0-33.6,33.6V408.8a33.653,33.653,0,0,0,33.6,33.6H249.2a5.6,5.6,0,1,0,0-11.2l-106.4,0a22.23,22.23,0,0,1-22.4-22.4V190.4H579.6V408.8a22.227,22.227,0,0,1-22.4,22.4H282.8a5.6,5.6,0,1,0,0,11.2H557.2a33.653,33.653,0,0,0,33.6-33.6V151.2a33.653,33.653,0,0,0-33.6-33.6Zm0,11.2H557.2a22.227,22.227,0,0,1,22.4,22.4v28H120.4v-28a22.227,22.227,0,0,1,22.4-22.4Zm26.949,106.4a5.624,5.624,0,0,0,1.051,11.2h56a5.6,5.6,0,1,0,0-11.2H169.749Zm106.4,0a5.624,5.624,0,0,0,1.051,11.2H378a5.6,5.6,0,1,0,0-11.2H276.15ZM473.2,324.8a33.6,33.6,0,1,0,0,67.2c6.293,0,11.828-2.246,16.8-5.25,4.969,3,10.5,5.25,16.8,5.25a33.6,33.6,0,0,0,0-67.2,32.159,32.159,0,0,0-16.8,5.074A32.136,32.136,0,0,0,473.2,324.8Zm0,11.2a21.888,21.888,0,0,1,13.477,4.551,5.753,5.753,0,0,0,6.648,0A21.886,21.886,0,0,1,506.8,336a22.4,22.4,0,0,1,0,44.8,22.019,22.019,0,0,1-13.477-4.727,5.753,5.753,0,0,0-6.648,0A22,22,0,0,1,473.2,380.8a22.4,22.4,0,0,1,0-44.8Z" transform="translate(-106.198 -114.596)" stroke="#000" stroke-width="6"/>
</svg>
