<svg xmlns="http://www.w3.org/2000/svg" width="11.758" height="20.33" viewBox="0 0 11.758 20.33">
  <path id="Path_34345" data-name="Path 34345" d="M6.986-5.605Q7-6.59,7.068-7.226A3.836,3.836,0,0,1,7.355-8.36a3.613,3.613,0,0,1,.629-.957q.41-.458,1.094-1.087.465-.479.95-.984a10.227,10.227,0,0,0,.889-1.06,5.837,5.837,0,0,0,.663-1.169,3.305,3.305,0,0,0,.26-1.3,2.926,2.926,0,0,0-.861-2.276,3.524,3.524,0,0,0-2.461-.786,4.979,4.979,0,0,0-1.251.157,3.251,3.251,0,0,0-1.08.492,2.559,2.559,0,0,0-.759.848,2.466,2.466,0,0,0-.287,1.224H2.611a4.622,4.622,0,0,1,.479-2.064,4.716,4.716,0,0,1,1.251-1.552A5.552,5.552,0,0,1,6.2-19.845a7.74,7.74,0,0,1,2.317-.335,8.069,8.069,0,0,1,2.468.349,5.034,5.034,0,0,1,1.839,1.019,4.406,4.406,0,0,1,1.148,1.627,5.674,5.674,0,0,1,.4,2.188,5.011,5.011,0,0,1-.342,1.853,8.107,8.107,0,0,1-.875,1.641,10.634,10.634,0,0,1-1.2,1.442q-.663.67-1.306,1.244a4.225,4.225,0,0,0-.636.752,2.877,2.877,0,0,0-.335.725,3.586,3.586,0,0,0-.137.786q-.027.417-.027.95ZM6.7-1.326a1.584,1.584,0,0,1,.39-1.094,1.485,1.485,0,0,1,1.169-.437A1.529,1.529,0,0,1,9.44-2.42a1.552,1.552,0,0,1,.4,1.094,1.468,1.468,0,0,1-.4,1.053A1.557,1.557,0,0,1,8.258.15,1.511,1.511,0,0,1,7.089-.273,1.5,1.5,0,0,1,6.7-1.326Z" transform="translate(-2.611 20.18)" fill="#4f322e"/>
</svg>
