<svg xmlns="http://www.w3.org/2000/svg" width="373.335" height="373.335" viewBox="0 0 373.335 373.335">
  <path id="Path_1" data-name="Path 1" d="M266.13,463.25a11.67,11.67,0,0,1,0-16.5L305.88,407a7.075,7.075,0,0,0,0-10L289.3,380.418A30.416,30.416,0,0,1,249.584,340.7l-16.578-16.578a7.075,7.075,0,0,0-10,0l-39.75,39.75a11.667,11.667,0,0,1-16.5-16.5l39.754-39.75a30.245,30.245,0,0,1,17.816-8.684,30.265,30.265,0,0,1,8.684-17.816l76.188-76.191a30.312,30.312,0,0,1,17.82-8.684,30.282,30.282,0,0,1,8.68-17.816l76.191-76.191a30.4,30.4,0,0,1,43,0l23.188,23.188a11.663,11.663,0,0,1,0,16.5,7.074,7.074,0,1,0,10,10,11.663,11.663,0,0,1,16.5,0l23.188,23.188a30.4,30.4,0,0,1,0,43l-76.191,76.191a30.284,30.284,0,0,1-17.816,8.68,30.31,30.31,0,0,1-8.684,17.82L348.882,397a30.267,30.267,0,0,1-17.816,8.684,30.264,30.264,0,0,1-8.684,17.82l-39.75,39.75a11.67,11.67,0,0,1-16.5,0Zm91.363-133.89a11.67,11.67,0,0,1,0-16.5l13.25-13.25a11.667,11.667,0,0,1,16.5,16.5l-13.25,13.25A11.67,11.67,0,0,1,357.493,329.36Zm-39.75,0a11.663,11.663,0,0,1,0-16.5l33.125-33.125a11.667,11.667,0,0,1,16.5,16.5L334.243,329.36A11.67,11.67,0,0,1,317.743,329.36Zm-19.879-19.875a11.67,11.67,0,0,1,0-16.5l33.129-33.125a11.667,11.667,0,0,1,16.5,16.5l-33.125,33.125A11.675,11.675,0,0,1,297.864,309.485ZM277.989,289.61a11.67,11.67,0,0,1,0-16.5l33.129-33.125a11.666,11.666,0,0,1,16.5,16.5L294.489,289.61A11.67,11.67,0,0,1,277.989,289.61Zm178.88-59.629a11.658,11.658,0,0,1,0-16.5l13.25-13.254a11.667,11.667,0,0,1,16.5,16.5l-13.25,13.25A11.663,11.663,0,0,1,456.869,229.981Zm-39.75,0a11.658,11.658,0,0,1,0-16.5l33.125-33.129a11.667,11.667,0,0,1,16.5,16.5l-33.129,33.125A11.658,11.658,0,0,1,417.119,229.981Zm-19.875-19.875a11.663,11.663,0,0,1,0-16.5l33.125-33.125a11.667,11.667,0,0,1,16.5,16.5L413.74,210.106A11.658,11.658,0,0,1,397.244,210.106Zm-19.879-19.875a11.67,11.67,0,0,1,0-16.5l33.125-33.125a11.669,11.669,0,0,1,16.5,16.5l-33.129,33.125A11.67,11.67,0,0,1,377.365,190.231Z" transform="translate(-163.336 -93.334)" fill-rule="evenodd"/>
</svg>
